<svg width="24" height="24" viewBox="0 0 24 24" fill="none" xmlns="http://www.w3.org/2000/svg">
<path d="M18.2674 19.287H18.8245C20.7703 19.287 21.7431 18.2953 21.7431 16.3213V7.21629H16.1417C15.1598 7.21629 14.6023 6.65914 14.6023 5.67643V0H9.70026C7.75454 0 6.77269 0.991714 6.77269 2.96571V3.42857H8.00011C9.33211 3.42857 10.3993 3.80657 11.4574 4.86429L16.8128 10.2386C17.88 11.3057 18.2674 12.4016 18.2674 13.686V19.287ZM16.3307 6.03557H21.2893C21.2331 5.733 21.0347 5.46857 20.7043 5.13814L16.68 1.03886C16.3585 0.708429 16.0757 0.500571 15.7825 0.453429L15.792 5.48743C15.792 5.87486 15.9433 6.03557 16.3307 6.03557ZM4.93069 24H14.055C16.0007 24 16.9825 23.0083 16.9825 21.0343V13.431H10.1443C8.92583 13.431 8.35926 12.855 8.35926 11.646V4.713H4.93069C2.98497 4.713 2.00269 5.70471 2.00269 7.67871V21.0343C2.00269 23.0177 2.98497 24 4.93069 24ZM10.1348 12.1371H16.482C16.3877 11.7686 16.1327 11.4287 15.7075 10.9941L10.7961 5.99786C10.3804 5.57271 10.0118 5.31771 9.65311 5.21357V11.655C9.65311 11.9764 9.81369 12.1371 10.1348 12.1371Z" fill="#3A1E09"/>
</svg>
