<svg width="24" height="24" viewBox="0 0 24 24" fill="none" xmlns="http://www.w3.org/2000/svg">
<path fill-rule="evenodd" clip-rule="evenodd" d="M5 2C4.73478 2 4.48043 2.10536 4.29289 2.29289C4.10536 2.48043 4 2.73478 4 3V19C4 19.7956 4.31607 20.5587 4.87868 21.1213C5.44129 21.6839 6.20435 22 7 22H17C17.7956 22 18.5587 21.6839 19.1213 21.1213C19.6839 20.5587 20 19.7956 20 19V8C19.9999 7.73481 19.8946 7.48049 19.707 7.293L14.707 2.293C14.5195 2.10545 14.2652 2.00006 14 2H5ZM14 4.414L17.586 8H14V4.414ZM15.707 13.707C15.8892 13.5184 15.99 13.2658 15.9877 13.0036C15.9854 12.7414 15.8802 12.4906 15.6948 12.3052C15.5094 12.1198 15.2586 12.0146 14.9964 12.0123C14.7342 12.01 14.4816 12.1108 14.293 12.293L11 15.586L9.707 14.293C9.5184 14.1108 9.2658 14.01 9.0036 14.0123C8.7414 14.0146 8.49059 14.1198 8.30518 14.3052C8.11977 14.4906 8.0146 14.7414 8.01233 15.0036C8.01005 15.2658 8.11084 15.5184 8.293 15.707L10.293 17.707C10.4805 17.8945 10.7348 17.9998 11 17.9998C11.2652 17.9998 11.5195 17.8945 11.707 17.707L15.707 13.707Z" fill="#3A1E09"/>
</svg>
