<svg width="236" height="50" viewBox="0 0 236 50" fill="none" xmlns="http://www.w3.org/2000/svg">
<g clip-path="url(#clip0_32_276)">
<rect width="50" height="50" rx="25" fill="#1F2937"/>
<g clip-path="url(#clip1_32_276)">
<path fill-rule="evenodd" clip-rule="evenodd" d="M0 0H50V50H0V0ZM0 0V50H50V0H0ZM12.5 13.7008H20.4102L25.8727 20.9211L32.1883 13.7008H36.0227L27.6484 23.2734L37.5 36.2992H29.7852L23.743 28.4L16.8289 36.2984H12.9945L21.9516 26.0602L12.5 13.7008ZM16.9766 15.875L30.8438 34.0039H32.9688L19.2555 15.875H16.9766Z" fill="white"/>
<path fill-rule="evenodd" clip-rule="evenodd" d="M0 0V50H50V0H0ZM12.5 13.7008H20.4102L25.8727 20.9211L32.1883 13.7008H36.0227L27.6484 23.2734L37.5 36.2992H29.7852L23.743 28.4L16.8289 36.2984H12.9945L21.9516 26.0602L12.5 13.7008ZM16.9766 15.875L30.8438 34.0039H32.9688L19.2555 15.875H16.9766Z" fill="#242424"/>
</g>
</g>
<g clip-path="url(#clip2_32_276)">
<rect x="62" width="50" height="50" rx="25" fill="#1F2937"/>
<g clip-path="url(#clip3_32_276)">
<path fill-rule="evenodd" clip-rule="evenodd" d="M62 0H112V50H62V0ZM62 0V50H112V0H62ZM74.5 13.7008H82.4102L87.8727 20.9211L94.1883 13.7008H98.0227L89.6484 23.2734L99.5 36.2992H91.7852L85.743 28.4L78.8289 36.2984H74.9945L83.9516 26.0602L74.5 13.7008ZM78.9766 15.875L92.8438 34.0039H94.9688L81.2555 15.875H78.9766Z" fill="white"/>
<path fill-rule="evenodd" clip-rule="evenodd" d="M62 0V50H112V0H62ZM74.5 13.7008H82.4102L87.8727 20.9211L94.1883 13.7008H98.0227L89.6484 23.2734L99.5 36.2992H91.7852L85.743 28.4L78.8289 36.2984H74.9945L83.9516 26.0602L74.5 13.7008ZM78.9766 15.875L92.8438 34.0039H94.9688L81.2555 15.875H78.9766Z" fill="#242424"/>
</g>
</g>
<g clip-path="url(#clip4_32_276)">
<rect x="124" width="50" height="50" rx="25" fill="#1F2937"/>
<g clip-path="url(#clip5_32_276)">
<path fill-rule="evenodd" clip-rule="evenodd" d="M124 0H174V50H124V0ZM124 0V50H174V0H124ZM136.5 13.7008H144.41L149.873 20.9211L156.188 13.7008H160.023L151.648 23.2734L161.5 36.2992H153.785L147.743 28.4L140.829 36.2984H136.995L145.952 26.0602L136.5 13.7008ZM140.977 15.875L154.844 34.0039H156.969L143.255 15.875H140.977Z" fill="white"/>
<path fill-rule="evenodd" clip-rule="evenodd" d="M124 0V50H174V0H124ZM136.5 13.7008H144.41L149.873 20.9211L156.188 13.7008H160.023L151.648 23.2734L161.5 36.2992H153.785L147.743 28.4L140.829 36.2984H136.995L145.952 26.0602L136.5 13.7008ZM140.977 15.875L154.844 34.0039H156.969L143.255 15.875H140.977Z" fill="#242424"/>
</g>
</g>
<g clip-path="url(#clip6_32_276)">
<rect x="186" width="50" height="50" rx="25" fill="#1F2937"/>
<g clip-path="url(#clip7_32_276)">
<path fill-rule="evenodd" clip-rule="evenodd" d="M186 0H236V50H186V0ZM186 0V50H236V0H186ZM198.5 13.7008H206.41L211.873 20.9211L218.188 13.7008H222.023L213.648 23.2734L223.5 36.2992H215.785L209.743 28.4L202.829 36.2984H198.995L207.952 26.0602L198.5 13.7008ZM202.977 15.875L216.844 34.0039H218.969L205.255 15.875H202.977Z" fill="white"/>
<path fill-rule="evenodd" clip-rule="evenodd" d="M186 0V50H236V0H186ZM198.5 13.7008H206.41L211.873 20.9211L218.188 13.7008H222.023L213.648 23.2734L223.5 36.2992H215.785L209.743 28.4L202.829 36.2984H198.995L207.952 26.0602L198.5 13.7008ZM202.977 15.875L216.844 34.0039H218.969L205.255 15.875H202.977Z" fill="#242424"/>
</g>
</g>
<defs>
<clipPath id="clip0_32_276">
<rect width="50" height="50" rx="25" fill="white"/>
</clipPath>
<clipPath id="clip1_32_276">
<rect width="50" height="50" rx="25" fill="white"/>
</clipPath>
<clipPath id="clip2_32_276">
<rect x="62" width="50" height="50" rx="25" fill="white"/>
</clipPath>
<clipPath id="clip3_32_276">
<rect x="62" width="50" height="50" rx="25" fill="white"/>
</clipPath>
<clipPath id="clip4_32_276">
<rect x="124" width="50" height="50" rx="25" fill="white"/>
</clipPath>
<clipPath id="clip5_32_276">
<rect x="124" width="50" height="50" rx="25" fill="white"/>
</clipPath>
<clipPath id="clip6_32_276">
<rect x="186" width="50" height="50" rx="25" fill="white"/>
</clipPath>
<clipPath id="clip7_32_276">
<rect x="186" width="50" height="50" rx="25" fill="white"/>
</clipPath>
</defs>
</svg>
