<svg width="72" height="22" viewBox="0 0 72 22" fill="none" xmlns="http://www.w3.org/2000/svg">
<path d="M19.2802 21.5516C19.1155 21.6114 18.9199 21.6413 18.6934 21.6413C18.467 21.6413 18.2611 21.6114 18.0759 21.5516C17.9935 21.5317 17.9317 21.4719 17.8906 21.3723C17.8494 21.2328 17.8185 21.1431 17.7979 21.1033C17.0362 19.4493 16.0481 17.3071 14.8335 14.6766C13.8453 12.5045 12.8572 10.3324 11.869 8.16033C11.0662 6.4067 10.0677 4.27446 8.8737 1.76359C8.79136 1.60417 8.7296 1.40489 8.68842 1.16576C8.64725 0.926631 8.62666 0.707428 8.62666 0.508153C8.62666 0.169384 8.67813 0 8.78106 0C8.92517 0 9.10015 0.23913 9.30602 0.717391C10.6236 3.66667 12.1058 6.89493 13.7527 10.4022C15.2761 13.6304 16.7995 16.8587 18.3229 20.087C18.3846 20.2065 18.5596 20.4457 18.8478 20.8043C19.1361 21.1431 19.2802 21.3922 19.2802 21.5516ZM16.9951 21.163C17.0568 21.2826 17.0465 21.3922 16.9642 21.4918C16.8818 21.5716 16.7789 21.6114 16.6554 21.6114C16.4289 21.6114 16.2437 21.6114 16.0996 21.6114C15.8731 21.6114 15.7187 21.5516 15.6364 21.4321C15.6981 21.2527 15.729 21.0833 15.729 20.9239C15.729 20.6051 15.6158 20.2165 15.3893 19.7582C15.0599 19.0806 14.8849 18.712 14.8644 18.6522C14.2262 17.2572 13.588 15.8623 12.9498 14.4674C12.8263 14.2482 12.6616 14.0987 12.4557 14.019C12.2705 13.9393 12.0646 13.8995 11.8382 13.8995L5.01374 13.9293C4.89022 13.9293 4.72553 14.1286 4.51966 14.5272C4.23145 15.1051 4.03588 15.4737 3.93295 15.6332C3.19184 17.3668 2.46102 19.0906 1.74049 20.8043C1.71991 20.904 1.74049 21.0435 1.80225 21.2228C1.86401 21.4022 1.8743 21.5317 1.83313 21.6114C1.54492 21.6513 1.24642 21.6712 0.93762 21.6712C0.772928 21.6712 0.608236 21.6712 0.443545 21.6712C0.23768 21.6313 0.0935748 21.6114 0.011229 21.6114C-0.0299439 21.452 0.0421087 21.3025 0.227387 21.163C0.433252 21.0236 0.546477 20.894 0.567064 20.7745C1.22583 19.24 2.0287 17.4167 2.97568 15.3043C3.81972 13.4511 4.66377 11.5779 5.50781 9.68478C6.37245 7.79167 7.16503 5.98822 7.88555 4.27446C7.94731 4.05525 7.97819 3.88587 7.97819 3.76631C7.97819 3.62681 7.89584 3.45743 7.73115 3.25815C7.58705 3.03895 7.48412 2.8596 7.42236 2.72011C7.3606 2.60054 7.39148 2.43116 7.515 2.21196C7.63851 1.99275 7.75174 1.88315 7.85467 1.88315C8.03995 1.88315 8.28699 2.21196 8.59578 2.86957C8.7193 3.14855 8.85312 3.42754 8.99722 3.70652C9.88244 5.65942 10.7779 7.61232 11.6838 9.56522C12.5896 11.4982 13.4954 13.4312 14.4012 15.3641C15.3893 17.5163 16.2539 19.4493 16.9951 21.163ZM12.0543 12.4348L9.42954 6.78533C9.24426 6.34692 9.07957 6.04801 8.93546 5.88859C8.81194 5.70924 8.69872 5.61957 8.59578 5.61957C8.49285 5.67935 8.4208 5.7192 8.37963 5.73913L5.3843 12.3451C5.32254 12.4846 5.32254 12.6341 5.3843 12.7935C5.44606 12.9529 5.55928 13.0326 5.72397 13.0326H11.6838C11.7867 13.0326 11.8896 12.9629 11.9926 12.8234C12.0955 12.664 12.1161 12.5344 12.0543 12.4348Z" fill="#3A1E09"/>
<path d="M31.0101 20.5652C31.113 20.5652 31.1645 20.635 31.1645 20.7745C31.1645 20.8542 31.1439 20.9538 31.1027 21.0734C31.0616 21.2129 31.0204 21.3025 30.9792 21.3424L30.516 21.6114H23.3828C23.2387 21.6114 23.0946 21.5317 22.9505 21.3723C22.827 21.2129 22.7652 21.0734 22.7652 20.9538L22.7343 1.49457C22.7343 1.29529 22.7755 1.11594 22.8579 0.956522C22.9402 0.777174 23.0946 0.6875 23.3211 0.6875H30.0528C30.1352 0.707427 30.1866 0.717391 30.2072 0.717391C30.3102 0.757247 30.3616 0.81703 30.3616 0.89674C30.3616 1.11594 30.3513 1.34511 30.3307 1.58424C30.3307 1.80344 30.2793 1.91304 30.1763 1.91304C30.0528 1.91304 29.9499 1.88315 29.8676 1.82337C29.7646 1.74366 29.6926 1.70381 29.6514 1.70381C28.0456 1.56431 26.1929 1.49457 24.093 1.49457C23.8872 1.49457 23.7637 1.57428 23.7225 1.7337C23.7225 1.77355 23.7225 1.85326 23.7225 1.97283L23.6916 10.6413C23.6916 10.8207 23.7431 10.9701 23.846 11.0897C23.9695 11.1893 24.1136 11.2391 24.2783 11.2391C24.8753 11.2391 25.812 11.2192 27.0884 11.1793C28.3647 11.1395 29.1779 11.1196 29.5279 11.1196C29.6514 11.1196 29.7543 11.0996 29.8367 11.0598C29.919 11.0199 30.0117 11 30.1146 11C30.2587 11 30.3307 11.1993 30.3307 11.5978C30.3307 12.0163 30.2587 12.2255 30.1146 12.2255C29.9911 12.2255 29.8984 12.2056 29.8367 12.1658C29.7749 12.1259 29.672 12.106 29.5279 12.106C28.8897 12.106 27.8707 12.0861 26.4708 12.0462C25.0915 12.0063 24.3401 11.9864 24.2166 11.9864C23.8666 11.9864 23.6916 12.1458 23.6916 12.4647V20.1168C23.6916 20.2962 23.7431 20.4556 23.846 20.5951C23.9695 20.7147 24.093 20.7745 24.2166 20.7745C25.0194 20.7745 25.8944 20.7545 26.8413 20.7147C29.2294 20.615 30.619 20.5652 31.0101 20.5652ZM22.2094 21.3723C22.2094 21.5516 22.055 21.6413 21.7462 21.6413C21.458 21.6413 21.2315 21.5915 21.0668 21.4918C20.9845 21.452 21.0051 21.3623 21.1286 21.2228C21.2521 21.0833 21.3139 20.9638 21.3139 20.8641V1.67391C21.3139 1.61413 21.2624 1.49457 21.1595 1.31522C21.0565 1.13587 21.0051 0.996378 21.0051 0.89674C21.0051 0.737319 21.1801 0.657609 21.53 0.657609C21.9829 0.657609 22.2094 0.797102 22.2094 1.07609V21.3723Z" fill="#3A1E09"/>
<path d="M52.6674 11.6576C52.7086 11.7971 52.6777 11.9266 52.5747 12.0462C52.4718 12.1658 52.4203 12.2853 52.4203 12.4049V20.1168C52.4203 20.2165 52.3483 20.3361 52.2042 20.4755C52.0601 20.615 51.9263 20.6848 51.8027 20.6848C51.6792 20.6848 51.5763 20.635 51.494 20.5353C51.4322 20.4556 51.4013 20.3659 51.4013 20.2663V11.6576C51.4013 11.5978 51.4734 11.538 51.6175 11.4783C51.741 11.4384 51.8954 11.4185 52.0807 11.4185C52.41 11.4185 52.6056 11.4982 52.6674 11.6576ZM52.7291 2.63043L52.5439 2.72011C52.2145 2.56069 52.0086 2.46105 51.9263 2.4212C51.5969 2.22192 51.2675 2.02265 50.9381 1.82337C49.6 1.28533 48.0869 1.01631 46.3988 1.01631C44.1549 1.01631 42.1992 1.4846 40.5317 2.4212C38.8642 3.33786 37.5775 4.60326 36.6717 6.21739C36.2971 6.89192 36.0018 7.59857 35.7858 8.33732C35.7009 8.62735 35.0258 8.77484 34.9654 9.07477C34.9165 9.31734 35.4782 9.71065 35.4453 9.95971C35.4221 10.1355 34.9033 10.3707 34.8881 10.5497C34.8746 10.7078 35.3638 11.0965 35.3566 11.2572C35.3481 11.4448 35.3439 11.347 35.3439 11.538C35.3439 13.4909 35.9821 15.2944 37.2584 16.9484C38.5348 18.6024 40.1199 19.7482 42.0139 20.3859C42.6727 20.625 43.3726 20.8143 44.1137 20.9538C44.8548 21.0933 45.6062 21.163 46.3679 21.163C47.6443 21.163 48.7354 20.9638 49.6412 20.5652C49.8265 20.4257 49.9191 20.3261 49.9191 20.2663V12.375C49.9191 12.2355 49.8779 12.106 49.7956 11.9864C49.7132 11.8469 49.6721 11.7373 49.6721 11.6576C49.7338 11.4982 49.95 11.4185 50.3205 11.4185C50.7734 11.4185 50.9999 11.4982 50.9999 11.6576V20.5353C50.9999 20.6748 50.8764 20.8243 50.6293 20.9837C50.3823 21.1431 50.0117 21.2926 49.5177 21.4321C48.056 21.7908 46.6047 21.9701 45.1636 21.9701C43.3108 21.9701 41.5816 21.6712 39.9758 21.0734C38.3701 20.4755 36.9393 19.5589 35.6835 18.3234C34.7366 17.3868 34.0366 16.2509 33.5837 14.9158C33.1793 13.7058 32.9555 12.6877 32.9122 11.2871C32.907 11.1191 32.4048 10.7204 32.4048 10.5497C32.4048 10.3713 32.9103 10.1361 32.9222 9.95971C32.9389 9.71197 32.3647 9.31866 32.4048 9.07477C32.4538 8.77692 33.1228 8.62943 33.2067 8.33732C33.7048 6.60303 34.8187 4.96976 36.5482 3.4375C38.998 1.2654 41.7257 0.179349 44.7313 0.179349C45.9253 0.179349 46.9238 0.229168 47.7266 0.328805C48.5501 0.408516 49.9603 0.697465 51.9571 1.19565C52.2454 1.27536 52.4306 1.27536 52.513 1.19565C52.5336 1.17573 52.5644 1.18569 52.6056 1.22554C52.7497 1.36504 52.8218 1.56431 52.8218 1.82337C52.76 2.20199 52.7291 2.47102 52.7291 2.63043ZM37.6907 3.70652C37.7731 3.60688 37.7731 3.53714 37.6907 3.49728C37.629 3.45743 37.5466 3.4375 37.4437 3.4375C36.2497 4.33424 35.3645 5.44022 34.788 6.75544C34.561 7.26572 34.3786 7.79301 34.241 8.33732C34.1676 8.62746 33.5044 8.77495 33.4565 9.07477C33.4177 9.31742 33.9897 9.71072 33.9676 9.95971C33.952 10.1355 33.4409 10.3707 33.4336 10.5497C33.4271 10.7079 33.9234 11.0966 33.9234 11.2572C33.9234 11.5561 33.9234 11.5281 33.9234 11.7473C33.9234 11.9466 33.9646 12.2953 34.0469 12.7935C34.2734 14.029 34.6336 15.1549 35.1277 16.1712C35.7453 17.4067 36.4555 18.1839 37.2584 18.5027C36.6408 17.606 36.1776 16.8687 35.8688 16.2908C34.9218 14.4774 34.4484 12.8234 34.4484 11.3288C34.4484 11.2074 34.4496 11.375 34.452 11.2572C34.4554 11.0943 33.9616 10.7056 33.9697 10.5497C33.9791 10.3676 34.4912 10.1324 34.507 9.95971C34.5305 9.70351 33.9584 9.3102 33.9959 9.07477C34.0458 8.76139 34.7107 8.6139 34.7855 8.33732C34.8573 8.0721 34.9405 7.82379 35.0351 7.59239C35.4468 6.61594 36.332 5.32065 37.6907 3.70652Z" fill="#3A1E09"/>
<path d="M58.6194 0.89674C58.6194 0.996378 58.5577 1.14583 58.4342 1.34511C58.3312 1.54438 58.2798 1.66395 58.2798 1.70381V20.8641C58.2798 20.9638 58.3312 21.0933 58.4342 21.2527C58.5577 21.3922 58.5783 21.4819 58.4959 21.5217C58.3312 21.6214 58.0945 21.6712 57.7857 21.6712C57.4769 21.6712 57.3225 21.5815 57.3225 21.4022V1.07609C57.3225 0.797102 57.5695 0.657609 58.0636 0.657609C58.4342 0.657609 58.6194 0.737319 58.6194 0.89674ZM56.8593 21.3723C56.8593 21.5516 56.7049 21.6413 56.3961 21.6413C56.0873 21.6413 55.8506 21.5915 55.6859 21.4918C55.6035 21.452 55.6241 21.3623 55.7476 21.2228C55.8711 21.0833 55.9329 20.9538 55.9329 20.8342V1.67391C55.9329 1.65399 55.8711 1.53442 55.7476 1.31522C55.6447 1.09601 55.5932 0.956522 55.5932 0.89674C55.5932 0.717392 55.7785 0.627718 56.1491 0.627718C56.6226 0.627718 56.8593 0.767211 56.8593 1.0462V21.3723Z" fill="#3A1E09"/>
<path d="M72 17.038C72 18.6522 71.3618 19.9176 70.0855 20.8342C69.0355 21.5915 67.8724 21.9701 66.5961 21.9701C66.4931 21.99 66.3284 22 66.102 22C65.4844 22 64.8256 21.8804 64.1257 21.6413C62.2729 21.0036 61.2127 20.6748 60.9451 20.6549C60.801 20.4357 60.7289 20.1368 60.7289 19.7582C60.7289 19.5589 60.7392 19.3596 60.7598 19.1603C60.7804 18.9611 60.801 18.7618 60.8216 18.5625C60.8627 18.5226 60.9451 18.5226 61.0686 18.5625C61.6656 19.3995 62.3964 20.0571 63.261 20.5353C64.1257 20.9937 65.0829 21.2228 66.1329 21.2228C66.9975 21.1033 67.7901 20.7545 68.5106 20.1766C69.437 19.4194 69.9002 18.4828 69.9002 17.3668C69.9002 16.1911 69.1899 14.856 67.7695 13.3614C66.4519 12.0661 65.1344 10.7708 63.8169 9.47554C62.3964 7.9212 61.6862 6.47645 61.6862 5.14131C61.6862 3.42754 62.2935 2.14221 63.5081 1.28533C64.4756 0.60779 65.6491 0.269022 67.0284 0.269022C67.3372 0.269022 67.5842 0.28895 67.7695 0.328805C67.9548 0.348733 68.4797 0.378624 69.3443 0.418478C70.2296 0.438407 70.7236 0.557972 70.8266 0.777175C70.9295 0.996377 70.981 1.22554 70.981 1.46467C70.981 1.74366 70.9295 1.98279 70.8266 2.18207C70.7236 2.12228 70.3634 1.93297 69.7458 1.61413C69.4164 1.43478 69.2208 1.33515 69.1591 1.31522C68.6032 1.07609 68.0165 0.956522 67.3989 0.956522C66.6578 0.956522 65.9888 1.13587 65.3917 1.49457C64.7947 1.83333 64.3521 2.23188 64.0639 2.69022C63.7139 3.22826 63.539 3.87591 63.539 4.63315C63.539 5.66938 64.2698 6.875 65.7314 8.25C67.0695 9.52536 68.418 10.7908 69.7767 12.0462C71.2589 13.7002 72 15.3641 72 17.038ZM71.1971 17.1576C71.1971 15.5833 70.4869 14.029 69.0664 12.4946C67.7283 11.279 66.4005 10.0634 65.0829 8.84783C63.6419 7.43297 62.9214 6.09783 62.9214 4.84239C62.9214 4.28442 62.9728 3.81612 63.0758 3.4375C63.2405 2.97917 63.364 2.61051 63.4463 2.33152C63.0346 2.59058 62.7361 2.95924 62.5508 3.4375C62.3861 3.89583 62.3038 4.47373 62.3038 5.1712C62.3038 6.30707 63.0243 7.59239 64.4653 9.02717C65.8035 10.3025 67.1416 11.5679 68.4797 12.8234C69.9414 14.4176 70.6722 15.942 70.6722 17.3967C70.6722 17.8351 70.5692 18.2835 70.3634 18.7418C70.1781 19.2002 69.9414 19.6585 69.6531 20.1168C70.0031 19.9973 70.3222 19.7183 70.6104 19.2799C71.0016 18.6821 71.1971 17.9746 71.1971 17.1576Z" fill="#3A1E09"/>
</svg>
