<svg width="24" height="24" viewBox="0 0 24 24" fill="none" xmlns="http://www.w3.org/2000/svg">
<path d="M13 9V1.07C16.94 1.56 20 4.92 20 9H13ZM6.34 20.66C5.59733 19.9165 5.00842 19.034 4.60691 18.0628C4.20541 17.0916 3.99918 16.0509 4 15V11H20V15C20 17.12 19.16 19.16 17.66 20.66C16.9165 21.4027 16.034 21.9916 15.0628 22.3931C14.0916 22.7946 13.0509 23.0008 12 23C9.88 23 7.84 22.16 6.34 20.66ZM11 9V1.07C9.41098 1.27032 7.91849 1.94241 6.71526 2.99946C5.51204 4.05652 4.65332 5.45001 4.25 7C4.09 7.64 4 8.31 4 9H11ZM6.34 7C6.82 5.65 7.78 4.5 9 3.81V7H6.34Z" fill="#3A1E09"/>
</svg>
