<svg width="24" height="24" viewBox="0 0 24 24" fill="none" xmlns="http://www.w3.org/2000/svg">
<path d="M1 5C1 4.73478 1.10536 4.48043 1.29289 4.29289C1.48043 4.10536 1.73478 4 2 4H22C22.2652 4 22.5196 4.10536 22.7071 4.29289C22.8946 4.48043 23 4.73478 23 5V19C23 19.2652 22.8946 19.5196 22.7071 19.7071C22.5196 19.8946 22.2652 20 22 20H2C1.73478 20 1.48043 19.8946 1.29289 19.7071C1.10536 19.5196 1 19.2652 1 19V5ZM13 8V10H19V8H13ZM18 12H13V14H18V12ZM10.5 10C10.5 9.33696 10.2366 8.70107 9.76777 8.23223C9.29893 7.76339 8.66304 7.5 8 7.5C7.33696 7.5 6.70107 7.76339 6.23223 8.23223C5.76339 8.70107 5.5 9.33696 5.5 10C5.5 10.663 5.76339 11.2989 6.23223 11.7678C6.70107 12.2366 7.33696 12.5 8 12.5C8.66304 12.5 9.29893 12.2366 9.76777 11.7678C10.2366 11.2989 10.5 10.663 10.5 10ZM8 13.5C7.07174 13.5 6.1815 13.8687 5.52513 14.5251C4.86875 15.1815 4.5 16.0717 4.5 17H11.5C11.5 16.0717 11.1313 15.1815 10.4749 14.5251C9.8185 13.8687 8.92826 13.5 8 13.5Z" fill="#3A1E09"/>
</svg>
