<svg width="88" height="88" viewBox="0 0 88 88" fill="none" xmlns="http://www.w3.org/2000/svg">
<path d="M44 76.8607C36.6324 74.6729 30.5128 70.2106 25.641 63.4737C20.7692 56.7368 18.3333 49.1456 18.3333 40.7V20.8707L44 11.2823L69.6666 20.8707V40.7C69.6666 49.1431 67.2307 56.7331 62.359 63.47C57.4872 70.2069 51.3675 74.668 44 76.8607ZM44 72.9703C49.9278 71.137 54.8777 67.5168 58.85 62.1097C62.8222 56.7026 65.1444 50.666 65.8166 44H44V15.1947L22 23.375V42.2804C22 42.7546 22.0611 43.3278 22.1833 44H44V72.9703Z" fill="#3A1E09"/>
</svg>
