<svg width="88" height="88" viewBox="0 0 88 88" fill="none" xmlns="http://www.w3.org/2000/svg">
<g clip-path="url(#clip0_18_95)">
<path d="M23.9555 45.9556H64.0444V53.4844H67.9555V42.0445H45.9555V34.2222H42.0444V42.0445H20.0444V53.4844H23.9555V45.9556Z" fill="#3A1E09"/>
<path d="M34.2222 56.2222H9.7778C7.07775 56.2222 4.88892 58.4111 4.88892 61.1111V75.7778C4.88892 78.4778 7.07775 80.6667 9.7778 80.6667H34.2222C36.9223 80.6667 39.1111 78.4778 39.1111 75.7778V61.1111C39.1111 58.4111 36.9223 56.2222 34.2222 56.2222Z" fill="#3A1E09"/>
<path d="M78.2222 56.2222H53.7778C51.0777 56.2222 48.8889 58.4111 48.8889 61.1111V75.7778C48.8889 78.4778 51.0777 80.6667 53.7778 80.6667H78.2222C80.9223 80.6667 83.1111 78.4778 83.1111 75.7778V61.1111C83.1111 58.4111 80.9223 56.2222 78.2222 56.2222Z" fill="#3A1E09"/>
<path d="M56.2222 7.33331H31.7778C29.0777 7.33331 26.8889 9.52214 26.8889 12.2222V26.8889C26.8889 29.5889 29.0777 31.7778 31.7778 31.7778H56.2222C58.9223 31.7778 61.1111 29.5889 61.1111 26.8889V12.2222C61.1111 9.52214 58.9223 7.33331 56.2222 7.33331Z" fill="#3A1E09"/>
</g>
<defs>
<clipPath id="clip0_18_95">
<rect width="88" height="88" fill="white"/>
</clipPath>
</defs>
</svg>
