<svg width="213" height="28" viewBox="0 0 213 28" fill="none" xmlns="http://www.w3.org/2000/svg">
<g clip-path="url(#clip0_18_24)">
<path d="M109.33 0.411011C104.912 3.01226 103.318 7.91071 103.48 12.9724C103.642 18.0342 107.333 22.9326 112.35 24.0869C117.367 25.2411 123.15 22.1106 124.403 17.2009C125.018 14.7911 124.263 11.7619 121.925 10.8273C119.257 9.76311 116.137 12.3756 116.075 15.2021C116.014 18.0342 118.234 20.5228 120.851 21.7052C123.469 22.8876 125.124 24.3233 130.069 24.3233H201.02" stroke="#2E2E2E" stroke-width="1.46" stroke-linecap="round" stroke-linejoin="round"/>
<path d="M11.9744 24.329H82.926C87.8701 24.329 89.5256 22.8932 92.1431 21.7108C94.7605 20.5284 96.9809 18.0398 96.9194 15.2077C96.8579 12.3756 93.737 9.7631 91.0692 10.8329C88.7314 11.7675 87.9763 14.7967 88.5916 17.2065C89.8444 22.1162 95.6274 25.2467 100.644 24.0925C105.661 22.9382 109.352 18.0398 109.515 12.9781C109.677 7.91632 108.088 3.01224 103.664 0.416626" stroke="#2E2E2E" stroke-width="1.46" stroke-linecap="round" stroke-linejoin="round"/>
<path d="M9.67012 20.6636L0 24.329L9.67012 28L14.8827 24.329L9.67012 20.6636Z" fill="#2E2E2E"/>
<path d="M203.33 20.6636L213 24.329L203.33 28L198.117 24.329L203.33 20.6636Z" fill="#2E2E2E"/>
</g>
<defs>
<clipPath id="clip0_18_24">
<rect width="213" height="28" fill="white"/>
</clipPath>
</defs>
</svg>
