<svg width="213" height="28" viewBox="0 0 213 28" fill="none" xmlns="http://www.w3.org/2000/svg" version="1.1" xmlns:xlink="http://www.w3.org/1999/xlink" transform="matrix(1,0,0,-1,0,0)"><g clip-path="url(#a)"><path d="M109.33.411c-4.418 2.601-6.012 7.5-5.85 12.561.162 5.062 3.853 9.96 8.87 11.115s10.8-1.976 12.053-6.886c.615-2.41-.14-5.44-2.478-6.374-2.668-1.064-5.788 1.549-5.85 4.375-.061 2.832 2.159 5.32 4.776 6.503s4.273 2.618 9.218 2.618h70.951" stroke="#2E2E2E" stroke-width="1.46" stroke-linecap="round" stroke-linejoin="round"></path><path d="M11.974 24.329h70.952c4.944 0 6.6-1.436 9.217-2.618 2.617-1.183 4.838-3.671 4.776-6.503-.061-2.832-3.182-5.445-5.85-4.375-2.338.934-3.093 3.964-2.477 6.373 1.252 4.91 7.035 8.04 12.052 6.887 5.017-1.155 8.708-6.053 8.871-11.115.162-5.062-1.427-9.966-5.851-12.561" stroke="#2E2E2E" stroke-width="1.46" stroke-linecap="round" stroke-linejoin="round"></path><path d="M9.67 20.664 0 24.329 9.67 28l5.213-3.671zm193.66 0 9.67 3.665L203.33 28l-5.213-3.671z" fill="#2E2E2E"></path></g><defs><clipPath id="a"><path fill="#fff" d="M0 0h213v28H0z"></path></clipPath></defs></svg>