<svg width="88" height="88" viewBox="0 0 88 88" fill="none" xmlns="http://www.w3.org/2000/svg">
<path d="M50.1233 29.3334H66C67.9449 29.3334 69.8102 30.106 71.1854 31.4813C72.5607 32.8565 73.3333 34.7218 73.3333 36.6667V52.5434M7.33331 51.3334H14.6666M73.3333 51.3334H80.6666M80.6666 80.6667L7.33331 7.33337M29.3333 29.3334H22C20.0551 29.3334 18.1898 30.106 16.8145 31.4813C15.4393 32.8565 14.6666 34.7218 14.6666 36.6667V66C14.6666 67.945 15.4393 69.8102 16.8145 71.1855C18.1898 72.5608 20.0551 73.3334 22 73.3334H66C67.9447 73.333 69.8097 72.5601 71.1846 71.1847M33 47.6667V55M35.4566 14.6667H44V23.21" stroke="#3A1E09" stroke-width="7.33333" stroke-linecap="round" stroke-linejoin="round"/>
</svg>
